<?xml version="1.0" standalone="no"?>
<!DOCTYPE svg PUBLIC "-//W3C//DTD SVG 20010904//EN"
 "http://www.w3.org/TR/2001/REC-SVG-20010904/DTD/svg10.dtd">
<svg version="1.0" xmlns="http://www.w3.org/2000/svg"
 width="128.000000pt" height="128.000000pt" viewBox="0 0 128.000000 128.000000"
 preserveAspectRatio="xMidYMid meet">

<g transform="translate(0.000000,128.000000) scale(0.100000,-0.100000)"
fill="#000000" stroke="none">
<path d="M170 1224 c-45 -20 -77 -50 -101 -96 -18 -35 -19 -64 -19 -471 l0
-434 23 -44 c13 -24 43 -57 66 -74 l43 -30 448 0 448 0 43 30 c23 17 53 50 66
74 l23 44 0 434 c0 468 1 462 -54 521 -21 24 -68 52 -83 52 -4 -1 6 -8 22 -17
42 -22 65 -43 82 -77 13 -24 13 -41 3 -115 -14 -96 -43 -151 -124 -230 l-44
-43 -18 33 c-67 131 -189 206 -240 147 l-19 -22 25 17 c37 25 67 21 119 -17
75 -55 120 -129 141 -230 45 -218 -119 -425 -352 -443 -206 -16 -376 99 -424
286 -32 125 2 246 96 345 61 65 92 76 132 46 31 -23 39 -13 10 13 -21 20 -60
22 -95 6 -19 -9 -45 -6 -128 16 -57 14 -108 31 -113 36 -6 5 -20 9 -32 9 -19
0 -24 8 -34 55 -10 50 -10 58 11 95 13 23 39 51 59 63 34 22 44 22 475 27
l440 6 -430 1 c-365 2 -435 0 -465 -13z m1010 -1008 c-14 -44 -79 -103 -122
-111 -18 -3 -222 -5 -454 -3 l-421 3 -36 28 c-20 15 -42 38 -48 50 -9 17 -4
15 22 -10 19 -17 47 -37 62 -42 37 -14 784 -15 857 -1 65 12 114 48 131 95 17
45 25 37 9 -9z"/>
<path d="M574 1078 c-19 -23 -19 -23 2 -5 24 20 74 23 94 5 12 -11 12 -10 1 5
-20 25 -73 22 -97 -5z"/>
<path d="M500 853 c0 -18 -12 -36 -41 -61 -76 -66 -106 -168 -77 -266 19 -63
100 -140 167 -160 68 -20 94 -20 162 0 67 20 152 101 168 161 23 81 7 162 -44
229 -28 36 -46 46 -102 57 l-33 7 0 -50 c0 -62 -16 -96 -49 -108 -28 -10 -70
1 -83 21 -4 7 -8 49 -8 94 0 71 -3 84 -19 93 -31 16 -41 12 -41 -17z"/>
</g>
</svg>
