<?xml version="1.0" standalone="no"?>
<!DOCTYPE svg PUBLIC "-//W3C//DTD SVG 20010904//EN"
 "http://www.w3.org/TR/2001/REC-SVG-20010904/DTD/svg10.dtd">
<svg version="1.0" xmlns="http://www.w3.org/2000/svg"
 width="256.000000pt" height="256.000000pt" viewBox="0 0 256.000000 256.000000"
 preserveAspectRatio="xMidYMid meet">

<g transform="translate(0.000000,256.000000) scale(0.100000,-0.100000)"
fill="#000000" stroke="none">
<path d="M1160 2479 c-110 -19 -175 -70 -189 -146 -10 -53 -6 -83 103 -817 53
-352 96 -642 96 -646 0 -15 75 -40 121 -40 42 0 119 23 119 35 0 2 45 307 101
677 55 370 101 702 102 738 1 104 -37 155 -137 186 -63 19 -242 26 -316 13z"/>
<path d="M1220 736 c-71 -16 -112 -38 -162 -88 -65 -65 -93 -136 -92 -238 0
-65 5 -96 21 -132 30 -66 96 -133 162 -165 48 -24 68 -28 146 -28 78 0 97 4
147 28 176 86 232 323 115 493 -74 107 -209 159 -337 130z"/>
</g>
</svg>
