<?xml version="1.0" standalone="no"?>
<!DOCTYPE svg PUBLIC "-//W3C//DTD SVG 20010904//EN"
 "http://www.w3.org/TR/2001/REC-SVG-20010904/DTD/svg10.dtd">
<svg version="1.0" xmlns="http://www.w3.org/2000/svg"
 width="256.000000pt" height="256.000000pt" viewBox="0 0 256.000000 256.000000"
 preserveAspectRatio="xMidYMid meet">

<g transform="translate(0.000000,256.000000) scale(0.100000,-0.100000)"
fill="#000000" stroke="none">
<path d="M1205 2461 c-51 -13 -75 -30 -68 -49 6 -14 4 -15 -9 -4 -12 10 -18 9
-28 -3 -7 -8 -19 -15 -26 -15 -17 0 -64 -94 -64 -127 0 -13 -4 -23 -9 -23 -5
0 -7 -9 -4 -19 3 -13 -2 -21 -15 -25 -11 -4 -30 -15 -42 -26 -13 -11 -30 -20
-39 -20 -9 0 -25 -6 -36 -14 -11 -7 -42 -17 -70 -21 -27 -4 -58 -14 -70 -22
-19 -14 -17 -15 25 -9 28 4 40 3 31 -3 -10 -6 -1 -11 30 -16 23 -4 68 -16 98
-26 30 -11 70 -18 89 -17 48 3 69 -37 37 -72 -12 -13 -17 -52 -22 -154 -5
-121 -3 -152 18 -257 13 -65 27 -119 31 -119 4 0 8 -7 8 -15 0 -7 6 -18 13
-22 6 -4 13 -21 14 -38 1 -16 4 -41 7 -55 2 -14 7 -43 10 -66 3 -23 6 -45 7
-50 4 -22 -2 -35 -13 -28 -7 4 -8 3 -4 -5 4 -6 11 -9 16 -6 5 3 11 -3 13 -12
3 -10 6 -2 7 17 2 19 9 -39 15 -130 14 -184 17 -467 5 -410 -5 21 -6 1 -3 -49
4 -60 3 -82 -5 -77 -11 6 -17 -10 -24 -59 -2 -12 2 -19 10 -17 6 1 12 -2 12
-8 0 -5 -7 -10 -15 -10 -8 0 -15 -8 -15 -18 0 -10 -5 -23 -11 -29 -6 -6 -8
-16 -5 -21 4 -6 29 11 59 39 28 27 68 54 87 59 47 13 83 39 76 56 -3 7 2 17
10 22 13 7 15 30 12 140 -3 120 2 154 15 120 5 -13 11 16 8 39 -1 6 3 14 9 18
5 3 10 1 10 -5 0 -7 6 -10 14 -7 9 4 12 -2 10 -21 -7 -49 -8 -218 -2 -228 4
-5 3 -29 -2 -54 -6 -31 -5 -47 3 -52 8 -5 4 -14 -11 -28 -22 -21 -26 -43 -8
-40 12 2 30 -30 21 -38 -3 -4 -10 0 -15 8 -6 8 -10 11 -10 6 0 -5 -7 -3 -15 4
-13 11 -15 7 -15 -27 l0 -40 88 -26 c49 -15 102 -27 117 -27 28 0 28 1 9 15
-10 8 -35 15 -56 15 -31 0 -37 4 -47 31 -7 20 -7 36 -2 43 5 6 8 38 6 71 -6
90 -6 345 -1 354 3 4 5 135 5 292 1 367 1 349 13 349 4 0 8 25 8 55 0 34 -4
55 -11 55 -6 0 -9 -7 -6 -14 4 -10 1 -13 -9 -9 -17 6 -16 14 -18 -120 -1 -64
-6 -111 -13 -115 -5 -4 -7 -16 -3 -26 3 -11 3 -39 0 -64 -4 -25 -5 -53 -2 -64
2 -10 0 -24 -6 -31 -6 -6 -8 -34 -6 -61 2 -26 -1 -57 -7 -67 -5 -10 -6 -19 -1
-19 5 0 7 -14 4 -30 -5 -36 -14 -38 -35 -8 -15 23 -15 23 -12 -10 2 -18 7 -37
11 -43 3 -6 -3 -5 -14 2 -15 9 -22 28 -27 74 -9 91 1 600 14 675 19 107 90
321 91 273 0 -7 8 -13 18 -13 14 0 15 -2 2 -10 -13 -8 -13 -10 1 -10 17 0 33
26 24 40 -2 4 4 15 15 25 44 40 7 41 -40 1 l-24 -21 16 25 c76 115 100 164 94
192 -5 27 -2 30 49 52 46 21 60 35 102 97 32 49 56 75 73 79 17 4 21 8 12 14
-6 4 -16 5 -21 2 -5 -4 -11 -2 -13 4 -2 6 -29 3 -70 -9 -37 -11 -94 -22 -127
-24 l-60 -5 -33 51 c-26 41 -46 58 -98 83 -73 35 -120 45 -165 35z m15 -21 c0
-5 -5 -10 -11 -10 -5 0 -7 5 -4 10 3 6 8 10 11 10 2 0 4 -4 4 -10z m-30 -4 c0
-3 -4 -8 -10 -11 -5 -3 -10 -1 -10 4 0 6 5 11 10 11 6 0 10 -2 10 -4z m116
-11 c9 -8 12 -15 7 -15 -4 0 -1 -5 7 -10 11 -7 17 -5 22 8 5 14 7 13 7 -5 1
-12 6 -25 13 -29 7 -4 8 -3 4 4 -4 7 -3 12 2 12 10 0 25 -26 27 -45 2 -27 41
-105 53 -105 6 0 12 -4 12 -9 0 -5 -9 -7 -20 -4 -11 3 -20 0 -20 -6 0 -6 7
-11 15 -11 19 0 19 -17 1 -36 -8 -7 -17 -19 -19 -26 -4 -10 -8 -10 -15 1 -5 7
-14 11 -19 8 -5 -3 -15 -2 -22 3 -11 6 -8 14 12 34 22 22 21 31 -4 28 -4 -1
-5 30 -3 68 1 39 -2 70 -7 70 -5 0 -12 0 -16 -1 -3 0 -10 6 -15 15 -5 9 -14
16 -21 16 -7 0 1 -12 17 -26 26 -23 28 -29 22 -70 -7 -58 -12 -64 -42 -64 -16
0 -25 6 -25 18 -4 38 -5 48 -12 62 -5 13 -3 65 3 65 1 0 3 14 5 30 3 42 7 45
31 20z m-187 -188 c-2 -1 -13 -9 -24 -17 -19 -14 -19 -14 -6 3 7 9 18 17 24
17 6 0 8 -1 6 -3z m209 -45 c2 -6 -3 -23 -11 -37 l-14 -27 -18 28 c-12 19 -14
29 -6 32 6 2 9 8 5 13 -3 5 5 8 17 6 13 -2 25 -9 27 -15z m107 -142 c-3 -5
-11 -10 -16 -10 -6 0 -7 5 -4 10 3 6 11 10 16 10 6 0 7 -4 4 -10z m-111 -39
c3 -5 0 -11 -8 -14 -15 -6 -26 1 -26 15 0 11 27 10 34 -1z m-217 -403 c-3 -7
-5 -2 -5 12 0 14 2 19 5 13 2 -7 2 -19 0 -25z m-32 -48 c-3 -6 0 -10 7 -10 8
-1 5 -6 -7 -15 -16 -13 -20 -13 -27 -1 -5 8 -3 27 3 43 9 25 12 26 20 10 6 -9
7 -22 4 -27z m42 -67 c-2 -16 -4 -5 -4 22 0 28 2 40 4 28 2 -13 2 -35 0 -50z
m-34 -20 c-8 -21 -18 -15 -21 12 -1 21 1 23 12 13 7 -7 11 -19 9 -25z m12 -41
c-3 -3 -11 0 -18 7 -9 10 -8 11 6 5 10 -3 15 -9 12 -12z m32 -69 c-2 -16 -4
-3 -4 27 0 30 2 43 4 28 2 -16 2 -40 0 -55z m10 -110 c-2 -16 -4 -5 -4 22 0
28 2 40 4 28 2 -13 2 -35 0 -50z m10 -825 c-3 -8 -6 -5 -6 6 -1 11 2 17 5 13
3 -3 4 -12 1 -19z m-10 -80 c-3 -8 -6 -5 -6 6 -1 11 2 17 5 13 3 -3 4 -12 1
-19z"/>
<path d="M1293 2298 c2 -7 12 -13 22 -13 10 0 20 6 23 13 2 7 -6 12 -23 12
-17 0 -25 -5 -22 -12z"/>
<path d="M1768 2003 c7 -3 16 -2 19 1 4 3 -2 6 -13 5 -11 0 -14 -3 -6 -6z"/>
<path d="M2055 1896 c-14 -14 -25 -30 -25 -35 0 -17 -33 -51 -50 -51 -9 0 -21
-5 -27 -11 -15 -15 -34 -3 -26 16 7 21 -7 19 -23 -2 -10 -15 -15 -16 -25 -5
-24 23 -42 15 -35 -15 12 -49 16 -214 6 -208 -16 10 -12 -11 15 -71 14 -31 23
-59 21 -63 -2 -3 2 -12 10 -19 12 -11 14 -4 14 46 0 33 -6 75 -14 93 -12 31
-14 94 -3 105 2 3 7 -13 11 -36 4 -24 14 -45 26 -52 24 -15 27 -30 4 -21 -12
4 -15 2 -12 -8 3 -8 13 -13 22 -11 14 3 15 -1 8 -15 -5 -10 -7 -24 -5 -30 3
-7 0 -13 -5 -13 -6 0 -9 -8 -7 -17 2 -10 4 -36 5 -58 2 -32 3 -35 9 -16 l6 23
14 -26 c19 -35 41 -34 41 3 0 27 21 47 34 33 4 -3 12 -7 19 -8 7 -1 19 -5 28
-9 11 -4 18 0 22 15 3 12 15 24 26 27 11 3 22 12 25 20 6 15 -15 93 -40 151
-11 26 -11 36 -2 52 14 21 45 33 54 19 8 -14 24 -11 24 4 0 27 -80 94 -117 98
-5 0 -10 3 -13 6 -3 4 1 3 8 -1 8 -5 12 -1 12 11 0 10 9 29 20 43 21 27 26 50
11 50 -5 0 -16 3 -25 6 -9 3 -26 -5 -41 -20z"/>
<path d="M957 1843 c-11 -10 -8 -171 3 -178 6 -4 8 -11 5 -16 -4 -5 -4 -9 -1
-9 2 0 12 -3 21 -6 15 -6 16 1 11 62 -10 134 -19 168 -39 147z"/>
<path d="M1705 1828 c-4 -14 -4 -49 -1 -77 4 -39 2 -53 -8 -57 -24 -9 -39 -59
-26 -83 6 -12 11 -40 11 -64 0 -116 11 -199 27 -205 7 -2 12 -8 12 -14 0 -6
-7 -8 -15 -4 -10 4 -15 -1 -15 -14 0 -30 -1 -34 -12 -47 -7 -9 -7 -17 0 -25 5
-7 9 -38 7 -68 -3 -71 -3 -70 -18 -70 -8 0 -14 -7 -14 -14 0 -8 3 -15 6 -14
24 2 33 -3 23 -15 -11 -13 -11 -42 1 -53 12 -13 7 -34 -8 -34 -8 0 -15 -9 -15
-20 0 -11 5 -20 12 -20 9 0 9 -3 0 -12 -8 -8 -8 -16 1 -32 6 -12 11 -25 12
-30 0 -5 5 -11 12 -13 11 -4 20 37 22 100 0 15 5 36 11 47 7 13 6 19 -5 24 -8
3 -15 11 -15 17 0 8 4 8 15 -1 12 -10 16 -9 20 2 8 20 2 62 -10 70 -6 5 -5 8
2 8 8 0 12 16 12 43 -1 23 1 49 2 57 2 8 -2 14 -9 12 -18 -3 -10 48 10 62 14
10 17 41 18 211 0 166 -2 196 -13 187 -8 -7 -20 -31 -27 -54 -18 -56 -35 -75
-26 -28 15 76 25 223 17 239 -8 13 -11 11 -16 -11z m-4 -175 c-12 -20 -14 -14
-5 12 4 9 9 14 11 11 3 -2 0 -13 -6 -23z m16 -265 c-3 -8 -6 -5 -6 6 -1 11 2
17 5 13 3 -3 4 -12 1 -19z m20 -40 c-3 -8 -6 -5 -6 6 -1 11 2 17 5 13 3 -3 4
-12 1 -19z m-20 -80 c-3 -8 -6 -5 -6 6 -1 11 2 17 5 13 3 -3 4 -12 1 -19z m13
-60 c0 -5 -4 -8 -10 -8 -5 0 -10 10 -10 23 0 18 2 19 10 7 5 -8 10 -18 10 -22z
m6 -34 c-3 -9 -6 -22 -6 -30 0 -7 -6 -11 -14 -8 -18 7 -8 54 11 54 10 0 13 -6
9 -16z m-6 -106 c0 -19 -16 -5 -17 14 -2 18 0 20 7 8 5 -8 10 -18 10 -22z"/>
<path d="M1771 1770 c-18 -72 -3 -84 26 -20 18 42 21 55 11 62 -21 13 -24 10
-37 -42z"/>
<path d="M1625 1770 c-3 -6 1 -7 9 -4 18 7 21 14 7 14 -6 0 -13 -4 -16 -10z"/>
<path d="M914 1759 c-14 -19 -40 -78 -50 -113 -12 -40 -30 -33 -27 10 2 31 1
33 -17 24 -38 -20 -18 -66 40 -89 19 -7 20 -10 7 -10 -10 -1 -27 4 -37 9 -16
9 -22 5 -34 -19 -15 -28 -85 -66 -116 -62 -21 2 -24 -57 -5 -86 9 -12 27 -30
41 -40 22 -14 27 -14 35 -2 6 10 9 10 9 2 0 -7 6 -13 14 -13 31 0 40 -105 21
-227 l-16 -99 30 -151 c47 -237 72 -337 81 -322 5 7 7 25 4 39 -2 14 -11 140
-19 280 -9 140 -20 275 -25 300 -5 25 -9 77 -9 115 0 68 0 69 16 44 27 -44 46
-50 100 -32 65 22 69 26 76 81 6 57 -23 210 -44 223 -22 14 -32 11 -24 -8 5
-15 4 -16 -7 -5 -7 7 -17 47 -23 88 -8 56 -13 73 -21 63z"/>
<path d="M1518 1725 c-2 -19 0 -35 4 -35 4 0 8 16 8 35 0 19 -2 35 -4 35 -2 0
-6 -16 -8 -35z"/>
<path d="M1420 1678 c1 -7 8 -24 16 -38 l15 -25 -6 28 c-4 18 -1 27 7 27 9 0
8 3 -2 10 -20 13 -30 12 -30 -2z"/>
<path d="M1470 1682 c0 -4 5 -13 11 -19 7 -7 7 -27 2 -59 -9 -52 -7 -84 7 -84
9 0 13 125 4 153 -5 17 -24 24 -24 9z"/>
<path d="M1780 1630 c0 -5 5 -10 10 -10 6 0 10 5 10 10 0 6 -4 10 -10 10 -5 0
-10 -4 -10 -10z"/>
<path d="M1825 1615 c4 -24 3 -26 -5 -13 -20 32 -39 10 -37 -42 1 -26 5 -44 8
-38 3 5 13 -2 23 -16 9 -14 13 -26 9 -26 -5 -1 5 -8 20 -16 16 -9 31 -14 33
-11 2 2 -7 30 -21 62 -14 32 -24 64 -21 71 3 8 1 24 -5 36 -8 20 -9 19 -4 -7z"/>
<path d="M1780 1496 c0 -2 7 -7 16 -10 8 -3 12 -2 9 4 -6 10 -25 14 -25 6z"/>
<path d="M1051 1288 c0 -22 1 -22 8 -3 8 19 9 18 13 -5 5 -25 5 -25 7 3 1 18
-4 27 -14 27 -9 0 -15 -9 -14 -22z"/>
<path d="M1012 1215 c0 -16 2 -22 5 -12 2 9 2 23 0 30 -3 6 -5 -1 -5 -18z"/>
<path d="M1000 1163 c0 -11 -3 -41 -6 -67 -6 -37 -4 -45 7 -41 15 5 19 108 6
122 -4 3 -7 -3 -7 -14z"/>
<path d="M1042 1110 c0 -14 2 -19 5 -12 2 6 2 18 0 25 -3 6 -5 1 -5 -13z"/>
<path d="M1103 1090 c-9 -24 -8 -33 2 -43 21 -21 36 -153 23 -194 -4 -13 -3
-23 2 -23 5 0 8 -16 6 -35 -1 -19 1 -35 5 -35 4 0 5 -10 2 -22 -3 -13 -2 -20
2 -16 18 17 0 343 -22 382 -7 13 -11 10 -20 -14z"/>
<path d="M1000 1015 c0 -14 2 -25 4 -25 2 0 6 11 8 25 3 14 1 25 -3 25 -5 0
-9 -11 -9 -25z"/>
<path d="M1391 1004 c0 -11 3 -14 6 -6 3 7 2 16 -1 19 -3 4 -6 -2 -5 -13z"/>
<path d="M1510 911 c0 -6 4 -13 10 -16 6 -3 7 1 4 9 -7 18 -14 21 -14 7z"/>
<path d="M1005 830 c-3 -5 -1 -10 4 -10 6 0 11 5 11 10 0 6 -2 10 -4 10 -3 0
-8 -4 -11 -10z"/>
<path d="M1525 810 c-3 -5 -1 -10 4 -10 6 0 11 5 11 10 0 6 -2 10 -4 10 -3 0
-8 -4 -11 -10z"/>
<path d="M1520 726 c0 -8 5 -18 10 -21 6 -3 10 1 10 9 0 8 -4 18 -10 21 -5 3
-10 -1 -10 -9z"/>
<path d="M1525 660 c3 -5 8 -10 11 -10 2 0 4 5 4 10 0 6 -5 10 -11 10 -5 0 -7
-4 -4 -10z"/>
<path d="M1030 606 c0 -31 6 -34 13 -6 3 11 1 23 -4 26 -5 3 -9 -6 -9 -20z"/>
<path d="M1040 560 c0 -5 5 -10 11 -10 5 0 7 5 4 10 -3 6 -8 10 -11 10 -2 0
-4 -4 -4 -10z"/>
<path d="M843 404 c-7 -20 10 -37 33 -32 27 5 27 23 -1 36 -21 10 -27 9 -32
-4z"/>
<path d="M903 353 c-22 -8 -14 -23 12 -23 18 0 23 4 19 15 -6 16 -11 17 -31 8z"/>
<path d="M1896 329 c-24 -18 -33 -29 -23 -29 9 0 32 -7 51 -16 19 -10 42 -14
52 -10 15 6 13 10 -14 26 -18 11 -31 27 -31 37 1 16 2 16 6 1 2 -9 11 -19 19
-22 19 -7 18 1 -4 24 -17 18 -18 18 -56 -11z"/>
<path d="M1818 271 c-8 -11 -20 -19 -28 -18 -21 3 -27 -17 -6 -21 19 -4 42 12
57 40 13 25 -6 24 -23 -1z"/>
</g>
</svg>
