<?xml version="1.0" standalone="no"?>
<!DOCTYPE svg PUBLIC "-//W3C//DTD SVG 20010904//EN"
 "http://www.w3.org/TR/2001/REC-SVG-20010904/DTD/svg10.dtd">
<svg version="1.0" xmlns="http://www.w3.org/2000/svg"
 width="256.000000pt" height="256.000000pt" viewBox="0 0 256.000000 256.000000"
 preserveAspectRatio="xMidYMid meet">

<g transform="translate(0.000000,256.000000) scale(0.100000,-0.100000)"
fill="#000000" stroke="none">
<path d="M740 2292 c-86 -11 -190 -72 -190 -112 0 -9 -17 -29 -38 -43 -22 -14
-46 -41 -55 -60 -35 -73 -11 -225 49 -313 13 -19 31 -51 39 -70 27 -64 45 -35
45 76 0 69 6 84 30 86 8 1 69 14 135 28 65 15 126 24 135 20 8 -4 67 -9 130
-13 l115 -6 -3 -60 c-3 -58 9 -115 25 -115 21 0 43 65 43 126 0 39 8 89 21
126 24 73 21 103 -20 161 -38 54 -121 135 -121 118 0 -10 -10 -12 -42 -7 -93
14 -263 49 -268 55 -3 3 -16 5 -30 3z m250 -318 c0 -9 -7 -14 -17 -12 -25 5
-28 28 -4 28 12 0 21 -6 21 -16z"/>
<path d="M2088 2171 c3 -21 12 -33 34 -42 53 -22 118 -90 118 -124 0 -9 -110
-5 -154 6 -37 9 -47 17 -62 50 -19 43 -54 74 -97 84 -21 6 -33 1 -57 -23 -16
-17 -30 -40 -30 -51 0 -25 -13 -26 -70 -6 -41 14 -42 14 -69 -13 -15 -15 -32
-35 -38 -45 -7 -13 -19 -18 -38 -15 l-28 3 47 52 c41 46 47 56 39 79 l-8 25
-43 -30 c-55 -40 -88 -92 -108 -170 -14 -57 -15 -88 -4 -295 17 -311 12 -455
-16 -493 -11 -15 -32 -31 -45 -34 -48 -14 96 -9 161 5 53 11 74 22 113 58 33
31 47 52 47 70 l0 26 47 -14 c64 -19 163 -16 163 5 0 4 -35 16 -77 26 -43 10
-88 25 -100 33 -12 7 -30 15 -40 16 -25 4 -70 71 -97 147 -18 48 -29 65 -45
67 -15 3 -25 17 -36 55 -26 87 -30 140 -10 157 24 20 46 3 60 -46 8 -31 12
-35 18 -21 4 10 7 28 7 39 0 17 5 19 27 15 49 -9 90 16 114 70 12 26 28 60 35
75 8 14 14 37 14 50 0 18 10 27 44 41 58 24 93 15 104 -27 5 -17 15 -31 23
-31 8 0 20 -20 29 -46 8 -25 25 -57 36 -72 12 -14 27 -40 34 -57 15 -37 27
-38 42 -5 18 39 52 30 56 -14 7 -71 -42 -211 -65 -187 -4 3 -16 -24 -28 -61
-28 -89 -60 -151 -98 -190 -17 -18 -26 -33 -20 -33 6 0 16 7 23 15 20 24 29
17 32 -27 3 -37 8 -44 43 -64 85 -48 105 -53 124 -30 10 11 9 21 -3 45 -23 44
-20 79 23 251 73 289 80 464 23 575 -20 40 -99 119 -139 139 -48 24 -60 21
-55 -13z"/>
<path d="M634 1305 c14 -97 13 -95 67 -95 26 0 72 -6 102 -14 63 -17 131 -8
152 20 8 11 15 22 15 25 0 3 -35 12 -77 19 -43 7 -99 20 -125 30 -27 10 -48
14 -48 9 0 -11 -35 8 -69 36 l-24 20 7 -50z"/>
<path d="M1080 1330 c-7 -14 -30 -46 -52 -72 -42 -51 -37 -58 23 -30 33 15 39
23 45 59 8 55 1 75 -16 43z"/>
<path d="M2109 1093 c-13 -16 -12 -17 4 -4 16 13 21 21 13 21 -2 0 -10 -8 -17
-17z"/>
<path d="M1513 1062 c-29 -14 -53 -29 -53 -32 0 -7 69 -30 88 -30 16 0 24 33
10 41 -9 6 -8 13 6 28 25 27 13 26 -51 -7z"/>
<path d="M101 727 c-18 -47 -41 -227 -41 -320 l0 -96 53 -16 c57 -17 227 -45
267 -44 32 1 28 2 -113 34 -101 23 -120 31 -127 50 -13 34 -33 296 -28 360 5
60 2 68 -11 32z"/>
<path d="M2390 548 c-52 -81 -65 -92 -169 -130 l-76 -28 84 6 c111 8 148 21
184 67 25 30 32 49 35 97 2 33 0 60 -4 59 -5 0 -29 -32 -54 -71z"/>
<path d="M1796 423 c-3 -4 -6 -15 -6 -25 0 -17 11 -18 130 -18 72 0 130 4 130
9 0 15 -86 31 -143 26 -30 -3 -66 -1 -80 4 -14 5 -28 7 -31 4z"/>
<path d="M21 378 c-1 -20 4 -40 10 -43 16 -11 17 -3 4 40 l-13 40 -1 -37z"/>
<path d="M458 243 c7 -3 16 -2 19 1 4 3 -2 6 -13 5 -11 0 -14 -3 -6 -6z"/>
</g>
</svg>
