<?xml version="1.0" standalone="no"?>
<!DOCTYPE svg PUBLIC "-//W3C//DTD SVG 20010904//EN"
 "http://www.w3.org/TR/2001/REC-SVG-20010904/DTD/svg10.dtd">
<svg version="1.0" xmlns="http://www.w3.org/2000/svg"
 width="128.000000pt" height="128.000000pt" viewBox="0 0 128.000000 128.000000"
 preserveAspectRatio="xMidYMid meet">

<g transform="translate(0.000000,128.000000) scale(0.100000,-0.100000)"
fill="#000000" stroke="none">
<path d="M802 1149 c-29 -5 -70 -18 -91 -28 -127 -65 -146 -143 -62 -256 46
-61 61 -88 61 -111 0 -16 -20 -17 -295 -11 -180 4 -295 3 -295 -3 0 -19 81
-664 84 -667 2 -2 210 17 464 42 253 25 465 45 471 45 8 0 11 87 11 285 l0
285 -113 0 c-63 0 -154 3 -203 6 l-89 7 0 41 c0 27 -14 67 -39 118 -36 73 -37
79 -23 101 21 32 99 80 175 107 57 21 81 40 50 40 -7 0 -22 2 -33 4 -11 2 -44
0 -73 -5z m324 -486 c-3 -27 -13 -136 -22 -243 -9 -107 -16 -196 -17 -197 -4
-3 -862 -131 -865 -128 -6 5 -42 588 -37 593 4 5 438 15 818 20 l129 2 -6 -47z"/>
<path d="M364 524 c3 -9 6 -22 6 -29 0 -11 7 -12 28 -5 15 5 38 8 52 7 19 -2
26 3 28 21 3 21 0 22 -58 22 -53 0 -61 -2 -56 -16z"/>
<path d="M828 459 c-45 -23 -47 -35 -12 -51 23 -11 29 -10 45 11 19 23 26 61
12 61 -5 -1 -25 -10 -45 -21z"/>
<path d="M284 423 c3 -10 8 -35 12 -55 3 -21 10 -35 15 -33 4 3 6 19 3 34 -3
16 -1 38 5 50 11 19 9 21 -14 21 -20 0 -25 -4 -21 -17z"/>
<path d="M530 420 c6 -11 12 -20 14 -20 2 0 6 9 9 20 4 15 0 20 -14 20 -17 0
-18 -3 -9 -20z"/>
<path d="M920 391 c-21 -17 -23 -22 -12 -45 23 -51 82 -16 68 40 -8 29 -23 30
-56 5z"/>
<path d="M428 273 c-16 -2 -28 -11 -28 -18 0 -11 6 -12 30 -4 17 6 30 15 30
20 0 5 -1 8 -2 8 -2 -1 -15 -4 -30 -6z"/>
</g>
</svg>
