<?xml version="1.0" standalone="no"?>
<!DOCTYPE svg PUBLIC "-//W3C//DTD SVG 20010904//EN"
 "http://www.w3.org/TR/2001/REC-SVG-20010904/DTD/svg10.dtd">
<svg version="1.0" xmlns="http://www.w3.org/2000/svg"
 width="64.000000pt" height="64.000000pt" viewBox="0 0 64.000000 64.000000"
 preserveAspectRatio="xMidYMid meet">

<g transform="translate(0.000000,64.000000) scale(0.100000,-0.100000)"
fill="#000000" stroke="none">
<path d="M539 580 c-50 -6 -88 -35 -244 -185 -38 -37 -11 -15 60 49 118 104
131 113 137 93 5 -20 6 -19 7 6 1 24 5 27 36 27 35 0 33 -2 -95 -112 -71 -61
-128 -114 -125 -116 3 -3 18 6 33 19 23 21 77 69 220 193 l22 19 0 -36 c0 -35
-2 -37 -32 -37 -23 0 -29 -3 -19 -9 8 -5 21 -7 29 -3 31 11 -1 -19 -136 -129
-75 -62 -142 -116 -149 -121 -7 -6 -19 -4 -32 4 l-20 12 21 23 c25 26 14 31
-14 6 -17 -15 -18 -15 -20 3 0 10 -2 24 -2 30 -1 6 -9 22 -19 37 -15 22 -25
27 -61 27 -64 0 -75 -41 -29 -111 l26 -40 -27 -28 c-16 -16 -27 -32 -26 -36 1
-4 -2 -10 -6 -13 -4 -4 -4 -1 0 6 13 23 -12 12 -33 -14 -37 -47 -23 -81 35
-86 22 -1 42 8 72 33 23 18 42 38 42 43 0 6 15 -5 34 -23 27 -26 40 -32 67
-29 30 3 35 7 43 40 7 29 6 42 -7 62 -10 14 -17 27 -17 30 0 2 70 59 155 125
164 129 161 125 149 203 -7 43 -13 46 -75 38z m67 -105 c-4 -13 -272 -230
-306 -249 -27 -16 8 15 158 138 115 95 142 123 143 144 2 25 2 25 6 4 3 -13 2
-30 -1 -37z m-472 -140 c-6 -16 32 -85 47 -85 5 0 -3 18 -17 40 -15 22 -24 43
-21 47 11 10 36 -17 48 -54 6 -19 30 -52 53 -73 23 -21 42 -48 43 -60 2 -17
-6 -12 -34 24 -20 26 -38 44 -41 41 -3 -3 2 -13 10 -22 23 -28 29 -41 20 -47
-9 -5 -127 150 -127 165 0 4 -3 10 -7 14 -8 9 14 35 24 29 4 -3 5 -11 2 -19z"/>
</g>
</svg>
