<?xml version="1.0" standalone="no"?>
<!DOCTYPE svg PUBLIC "-//W3C//DTD SVG 20010904//EN"
 "http://www.w3.org/TR/2001/REC-SVG-20010904/DTD/svg10.dtd">
<svg version="1.0" xmlns="http://www.w3.org/2000/svg"
 width="1570.000000pt" height="1578.000000pt" viewBox="0 0 1570.000000 1578.000000"
 preserveAspectRatio="xMidYMid meet">

<g transform="translate(0.000000,1578.000000) scale(0.100000,-0.100000)"
fill="#000000" stroke="none">
<path d="M7453 14379 c-1496 -90 -2909 -688 -4008 -1695 -674 -618 -1204
-1350 -1568 -2164 -419 -938 -613 -1986 -557 -3010 108 -1970 1058 -3738 2645
-4921 1696 -1264 3953 -1617 5980 -935 1150 387 2153 1080 2955 2041 116 139
302 390 413 558 952 1439 1291 3217 941 4930 -219 1068 -707 2065 -1428 2913
-141 166 -564 589 -730 730 -1018 865 -2247 1393 -3556 1528 -333 35 -765 45
-1087 25z m723 -539 c1211 -70 2321 -476 3282 -1200 1037 -780 1802 -1890
2157 -3130 384 -1340 289 -2785 -265 -4055 -457 -1047 -1219 -1957 -2175
-2595 -1538 -1027 -3469 -1284 -5230 -696 -1266 424 -2370 1273 -3101 2386
-152 232 -254 410 -379 665 -329 667 -520 1357 -591 2125 -24 253 -24 766 0
1020 73 793 269 1487 614 2177 856 1707 2480 2911 4357 3228 431 73 906 99
1331 75z"/>
<path d="M7490 13569 c-1114 -72 -2176 -464 -3065 -1129 -230 -172 -385 -308
-621 -544 -237 -238 -375 -395 -544 -621 -834 -1117 -1234 -2508 -1119 -3893
140 -1687 1017 -3223 2404 -4207 1706 -1211 3948 -1390 5830 -465 1597 786
2745 2279 3094 4025 76 378 105 682 105 1105 1 525 -45 910 -166 1395 -211
846 -602 1612 -1174 2300 -138 166 -520 549 -690 692 -894 750 -1942 1197
-3104 1322 -274 30 -670 38 -950 20z m720 -209 c1214 -86 2324 -541 3245
-1331 154 -132 442 -420 574 -574 596 -695 1015 -1528 1211 -2409 498 -2242
-447 -4553 -2380 -5819 -559 -366 -1198 -633 -1843 -771 -1451 -310 -2948 -34
-4177 772 -647 424 -1189 965 -1613 1612 -321 491 -571 1053 -717 1615 -558
2144 209 4395 1965 5760 285 222 584 409 925 579 678 338 1340 514 2140 569
113 8 539 6 670 -3z"/>
<path d="M7895 12845 c-108 -41 -157 -163 -106 -263 27 -52 55 -75 141 -117
102 -50 120 -68 120 -120 0 -54 -22 -75 -78 -75 -51 0 -78 23 -88 74 l-6 36
-59 0 c-76 0 -74 1 -72 -37 5 -71 63 -144 138 -174 17 -6 62 -12 101 -12 92 0
156 33 185 96 36 79 16 190 -42 244 -13 12 -58 38 -99 58 -99 49 -120 69 -120
115 0 52 30 75 92 71 26 -2 58 -42 58 -73 l0 -28 70 0 70 0 0 28 c0 52 -48
130 -96 158 -56 33 -150 41 -209 19z"/>
<path d="M7342 12827 c-48 -18 -102 -65 -118 -103 -20 -48 -17 -118 6 -165 27
-53 85 -92 181 -124 89 -30 119 -58 119 -111 0 -99 -147 -100 -167 -2 l-6 30
-63 -4 c-35 -2 -66 -7 -70 -11 -13 -13 16 -87 49 -124 44 -50 98 -73 178 -73
131 0 219 76 219 190 -1 102 -62 172 -188 214 -98 33 -132 61 -132 110 0 40
37 76 77 76 30 0 73 -42 73 -71 0 -21 3 -21 66 -16 36 2 68 8 71 11 11 11 -17
84 -44 117 -52 62 -165 87 -251 56z"/>
<path d="M8488 12800 c-75 -23 -132 -83 -161 -171 -9 -25 -23 -97 -32 -161
-19 -129 -12 -193 26 -255 59 -95 214 -136 316 -84 83 42 121 113 148 277 28
172 13 266 -55 334 -58 58 -163 84 -242 60z m138 -133 c23 -20 28 -34 32 -84
5 -77 -22 -252 -47 -301 -33 -64 -98 -80 -150 -36 -40 33 -47 77 -32 189 26
189 60 255 132 255 25 0 47 -8 65 -23z"/>
<path d="M6857 12751 c-98 -21 -179 -40 -181 -42 -3 -4 132 -660 137 -665 2
-3 284 53 363 71 19 4 20 8 11 60 -6 30 -14 55 -19 55 -4 0 -61 -11 -125 -25
-64 -13 -118 -24 -119 -22 -5 6 -35 169 -32 173 3 2 50 14 106 26 82 17 101
25 98 37 -3 9 -8 33 -12 54 -3 20 -9 37 -13 37 -4 0 -47 -9 -97 -20 -49 -11
-94 -20 -100 -20 -6 0 -18 34 -26 76 -18 89 -27 81 122 109 52 10 98 21 103
25 11 10 -13 110 -26 109 -7 0 -92 -18 -190 -38z"/>
<path d="M9000 12715 c0 -3 -40 -145 -90 -316 -49 -170 -90 -316 -90 -324 0
-12 87 -45 118 -45 5 0 24 52 42 115 29 100 36 115 54 115 42 0 48 -14 62
-146 8 -71 18 -131 22 -135 6 -5 121 -39 133 -39 3 0 0 44 -7 98 -28 226 -28
209 -1 216 86 21 156 169 128 272 -11 40 -56 91 -100 114 -23 12 -246 80 -263
80 -4 0 -8 -2 -8 -5z m156 -156 c49 -13 84 -48 84 -86 0 -38 -26 -90 -55 -109
-24 -15 -33 -16 -74 -5 -25 7 -49 15 -53 19 -7 7 40 192 49 192 2 0 24 -5 49
-11z"/>
<path d="M6360 12622 c-96 -31 -176 -56 -177 -57 -1 0 172 -552 202 -642 3 -8
21 -6 65 7 34 10 64 21 66 23 2 2 -14 60 -36 129 -22 69 -40 128 -40 131 0 3
44 20 98 38 53 17 99 33 101 35 5 5 -30 104 -37 104 -4 0 -50 -14 -102 -30
-52 -16 -96 -30 -97 -30 -4 0 -54 163 -51 165 2 2 156 52 215 70 9 3 8 16 -4
52 -9 26 -18 51 -22 54 -3 4 -85 -19 -181 -49z"/>
<path d="M9660 12163 c-78 -164 -144 -303 -146 -309 -5 -10 112 -71 121 -63 2
3 32 62 65 132 l60 127 90 -45 c49 -25 90 -47 90 -49 0 -1 -27 -60 -60 -129
-33 -70 -60 -128 -60 -130 0 -10 124 -60 127 -52 2 6 68 145 148 310 l144 300
-57 27 c-31 14 -60 27 -64 27 -3 1 -32 -53 -64 -119 -31 -66 -61 -120 -65
-120 -4 0 -45 18 -91 40 -61 30 -82 45 -80 57 2 9 28 65 58 125 l54 108 -60
30 c-33 16 -61 30 -63 30 -2 0 -68 -134 -147 -297z"/>
<path d="M5816 12424 c-61 -22 -106 -62 -132 -118 -42 -89 -30 -167 50 -340
52 -112 99 -166 168 -196 66 -28 128 -24 205 16 101 51 143 146 119 262 -7 32
-32 101 -56 155 -49 112 -112 190 -175 218 -48 22 -124 23 -179 3z m151 -148
c21 -24 58 -87 82 -141 65 -148 67 -209 8 -245 -50 -31 -84 -26 -127 19 -40
42 -125 224 -136 290 -11 66 33 120 98 121 31 0 42 -7 75 -44z"/>
<path d="M5340 12159 c-50 -14 -261 -142 -258 -156 6 -24 343 -572 353 -572 6
-1 34 14 62 32 l53 33 -64 106 -64 107 25 16 c13 9 31 14 38 11 7 -2 57 -37
111 -77 l97 -72 54 29 c30 16 59 34 64 41 7 8 -25 36 -111 98 -66 47 -120 88
-120 91 0 3 5 25 11 49 15 59 -8 136 -57 193 -57 67 -123 91 -194 71z m74
-144 c40 -37 60 -91 46 -124 -14 -35 -91 -85 -106 -68 -18 20 -94 146 -94 156
0 13 82 60 106 61 12 0 33 -11 48 -25z"/>
<path d="M10410 12081 c-95 -31 -192 -137 -275 -300 -74 -147 -26 -282 125
-350 118 -54 230 0 342 167 118 175 135 284 60 388 -52 71 -179 119 -252 95z
m129 -140 c61 -43 51 -103 -40 -243 -75 -114 -103 -144 -145 -158 -57 -19
-124 31 -124 92 0 36 14 67 78 168 103 162 156 195 231 141z"/>
<path d="M4847 11826 c-43 -16 -46 -18 -166 -111 -50 -38 -89 -73 -88 -78 1
-4 96 -126 211 -272 l208 -265 51 41 c29 23 51 46 49 52 -2 6 -33 47 -69 93
-36 45 -65 85 -64 88 0 4 27 29 60 56 120 99 132 214 36 328 -55 65 -155 95
-228 68z m98 -140 c46 -35 70 -90 55 -124 -10 -25 -96 -100 -104 -91 -1 2 -28
36 -59 76 -31 39 -58 76 -59 82 -4 17 83 80 111 81 13 0 39 -11 56 -24z"/>
<path d="M10790 11638 c-74 -89 -173 -206 -219 -260 l-84 -99 49 -44 c27 -24
51 -44 54 -44 3 0 41 42 85 94 l80 95 24 -25 25 -24 -38 -121 c-21 -66 -36
-127 -33 -134 3 -7 28 -31 55 -55 l51 -42 36 118 c20 65 40 132 46 148 8 27
13 30 52 31 116 2 232 139 211 249 -3 20 -16 50 -28 67 -20 30 -215 209 -226
207 -3 0 -66 -73 -140 -161z m218 -56 c57 -52 57 -89 3 -143 -48 -49 -83 -51
-135 -10 -20 16 -38 33 -39 37 -2 9 114 152 124 153 3 1 24 -16 47 -37z"/>
<path d="M7580 11630 c-1304 -108 -2417 -821 -3045 -1951 -629 -1132 -628
-2531 4 -3664 427 -766 1114 -1368 1926 -1688 450 -177 890 -260 1385 -260
495 0 935 83 1385 260 1214 478 2103 1557 2340 2837 43 236 58 412 59 681 0
436 -54 783 -185 1184 -251 765 -744 1434 -1407 1910 -512 366 -1133 603
-1772 676 -163 19 -545 27 -690 15z m541 -211 c635 -49 1222 -257 1754 -620
676 -461 1188 -1170 1415 -1960 196 -685 184 -1418 -35 -2089 -89 -271 -196
-505 -344 -749 -424 -698 -1083 -1239 -1849 -1517 -951 -345 -2033 -262 -2917
222 -155 84 -400 248 -540 360 -142 113 -426 398 -539 539 -365 459 -608 973
-721 1530 -218 1077 60 2173 766 3015 115 137 356 375 489 482 715 576 1619
858 2521 787z"/>
<path d="M7525 11330 c-246 -28 -581 -100 -770 -167 l-80 -28 -3 -1537 -2
-1538 -700 0 -700 0 0 1062 0 1062 -37 -44 c-141 -163 -316 -413 -407 -581
l-46 -86 0 -1612 0 -1613 61 -106 c108 -187 251 -388 403 -567 l25 -30 1 1013
0 1012 700 0 700 0 0 -1488 0 -1489 148 -46 c152 -48 298 -87 326 -87 15 0 16
143 16 1555 l0 1555 405 0 405 0 0 -1591 0 -1592 128 7 c70 4 179 15 242 24
l115 17 3 1568 2 1567 1251 0 1251 0 -7 -87 c-59 -767 -461 -1475 -1124 -1982
-181 -139 -397 -274 -593 -372 -57 -28 -104 -52 -106 -54 -1 -1 38 -86 87
-188 l90 -186 58 27 c513 241 991 643 1333 1122 221 309 417 718 516 1077 85
311 114 518 121 866 l5 267 -966 0 -967 0 6 58 c12 112 37 268 55 347 97 413
298 807 585 1145 93 109 318 327 417 405 l76 59 -20 29 c-12 16 -87 98 -168
181 l-147 150 -89 -73 c-131 -109 -407 -390 -508 -516 -393 -494 -648 -1120
-683 -1682 l-6 -103 -233 0 -234 0 -2 1618 -3 1617 -120 18 c-138 21 -675 32
-810 17z m445 -1760 l0 -1510 -405 0 -405 0 0 1510 0 1510 405 0 405 0 0
-1510z"/>
<path d="M11606 11324 c-38 -8 -71 -16 -74 -19 -3 -3 10 -21 28 -40 l34 -35
99 0 100 0 -49 53 c-27 28 -53 53 -59 53 -5 1 -41 -4 -79 -12z"/>
<path d="M4215 11266 c-41 -19 -111 -93 -130 -138 -22 -54 -19 -124 8 -183 32
-67 196 -223 279 -265 74 -36 148 -40 207 -11 45 23 108 91 127 137 31 75 10
177 -48 231 l-24 23 -30 -33 c-57 -62 -57 -61 -29 -102 33 -50 32 -77 -9 -119
-56 -60 -96 -47 -231 74 -154 136 -175 182 -111 246 41 41 68 43 118 9 l37
-25 45 53 c43 48 45 53 29 66 -64 48 -174 65 -238 37z"/>
<path d="M11171 11130 c-172 -82 -316 -152 -319 -155 -3 -3 17 -29 45 -57 l51
-51 61 34 60 33 27 -24 c14 -14 43 -46 64 -71 l39 -45 -39 -59 -39 -58 47 -53
c26 -30 49 -54 52 -54 3 0 37 55 76 123 39 67 119 207 179 310 l108 188 -44
45 c-24 24 -46 44 -49 43 -3 0 -146 -68 -319 -149z m213 -42 c-4 -7 -32 -52
-62 -101 l-56 -87 -43 42 c-29 29 -40 45 -33 52 11 11 180 103 193 105 5 0 5
-5 1 -11z"/>
<path d="M3833 10823 c-34 -49 -84 -120 -112 -159 l-51 -72 272 -192 c149
-106 277 -193 284 -194 10 -1 60 66 215 285 l18 26 -43 32 c-25 17 -46 31 -49
31 -3 0 -37 -45 -77 -100 -39 -55 -73 -100 -76 -100 -2 0 -36 23 -74 51 l-70
51 47 66 c26 37 54 75 62 85 15 18 14 21 -14 43 -62 51 -59 52 -120 -36 -31
-44 -60 -82 -65 -85 -13 -8 -130 78 -125 92 2 6 33 52 69 102 36 50 66 93 66
95 0 5 -86 66 -92 66 -2 0 -31 -39 -65 -87z"/>
<path d="M11642 10825 c-125 -58 -277 -187 -308 -260 -58 -141 64 -325 216
-325 44 0 140 36 140 52 0 6 -16 33 -36 60 -27 36 -41 47 -53 42 -56 -23 -70
-26 -95 -20 -31 8 -66 59 -66 98 0 39 40 80 159 164 155 109 205 117 251 42
28 -47 25 -72 -15 -113 l-36 -35 42 -56 41 -56 29 28 c41 39 79 120 79 168 0
80 -80 198 -153 225 -51 19 -137 13 -195 -14z"/>
<path d="M3481 10270 c-61 -110 -111 -204 -111 -208 0 -7 82 -52 95 -52 2 0
22 31 43 70 l38 69 245 -134 c134 -74 247 -135 251 -135 6 0 68 102 68 113 0
3 -108 65 -240 137 -132 73 -243 136 -246 141 -3 5 11 38 30 73 20 35 36 68
36 73 0 7 -81 53 -95 53 -2 0 -53 -90 -114 -200z"/>
<path d="M11845 10265 c-154 -91 -284 -166 -290 -168 -5 -2 1 -24 15 -50 46
-87 17 -95 326 86 153 90 287 168 296 173 16 9 15 14 -15 63 -18 30 -37 56
-42 58 -6 1 -136 -71 -290 -162z"/>
<path d="M12085 10086 c-68 -22 -228 -103 -267 -135 -78 -66 -102 -178 -59
-276 44 -99 112 -145 214 -145 73 0 104 10 232 71 152 73 215 148 215 256 0
100 -58 192 -142 227 -45 19 -137 20 -193 2z m186 -145 c42 -42 41 -96 -3
-138 -32 -31 -166 -102 -242 -129 -85 -31 -139 -11 -165 59 -25 65 32 120 194
190 106 46 104 45 148 46 30 1 45 -6 68 -28z"/>
<path d="M3242 9773 c-40 -97 -69 -180 -65 -184 17 -16 617 -259 624 -251 4 4
39 85 78 180 l70 173 -46 20 c-25 11 -50 18 -55 17 -6 -2 -30 -53 -55 -113
-24 -61 -46 -111 -47 -112 -3 -4 -149 58 -159 66 -4 4 1 27 12 52 11 24 29 68
40 96 l21 53 -34 14 c-55 23 -76 28 -76 18 0 -25 -74 -182 -85 -182 -20 0
-135 51 -135 60 0 4 20 55 45 114 25 60 45 110 45 112 0 4 -53 27 -86 38 -18
5 -28 -14 -92 -171z"/>
<path d="M12273 7876 c-99 -31 -157 -109 -157 -210 1 -130 90 -220 219 -220
88 0 158 41 195 114 63 126 1 275 -131 314 -62 19 -71 19 -126 2z"/>
<path d="M3152 7698 c-128 -62 -160 -234 -64 -340 63 -70 144 -93 233 -67 189
57 201 337 17 413 -52 22 -134 19 -186 -6z"/>
<path d="M11239 5404 l-32 -56 269 -269 269 -269 34 69 34 69 -54 50 -54 51
43 85 c29 57 49 86 60 86 10 -1 44 -7 77 -15 32 -8 60 -13 60 -12 31 54 73
137 69 137 -3 0 -166 29 -362 65 -196 36 -362 65 -368 65 -7 0 -27 -25 -45
-56z m310 -121 c64 -15 117 -28 119 -29 3 -2 -46 -104 -54 -113 -2 -2 -18 9
-36 24 -57 48 -159 145 -152 145 4 0 59 -12 123 -27z"/>
<path d="M4090 5327 c-190 -39 -347 -72 -350 -74 -7 -6 64 -133 75 -133 6 0
35 7 65 15 30 8 60 15 67 15 7 0 33 -38 58 -85 l46 -85 -55 -52 -56 -53 38
-68 39 -68 184 193 c101 106 219 229 261 274 l78 80 -31 57 c-23 43 -36 57
-52 56 -12 0 -177 -33 -367 -72z m230 -86 c0 -4 -40 -45 -89 -90 l-89 -81 -31
57 c-17 31 -30 58 -28 59 1 1 54 16 117 32 63 17 116 31 118 31 1 1 2 -3 2 -8z"/>
<path d="M4435 4910 c-117 -89 -223 -177 -239 -200 -60 -82 -43 -189 46 -286
72 -79 142 -99 229 -69 45 16 469 330 469 347 0 19 -75 107 -87 103 -7 -2
-101 -71 -210 -153 -109 -82 -208 -154 -220 -160 -37 -20 -69 -14 -96 18 -35
41 -42 68 -26 98 8 14 112 99 232 189 l217 164 -41 54 c-23 30 -46 55 -53 54
-6 0 -105 -72 -221 -159z"/>
<path d="M11076 5045 c-51 -18 -84 -51 -169 -165 -38 -52 -74 -100 -79 -106
-5 -8 86 -80 279 -220 158 -115 290 -210 293 -212 7 -2 90 101 90 112 0 2 -45
36 -100 76 -55 40 -102 75 -104 79 -3 4 5 19 17 34 20 25 25 26 57 17 19 -5
81 -20 138 -34 l102 -24 45 62 c24 33 41 64 37 67 -4 3 -76 21 -159 40 l-153
33 0 38 c0 79 -76 170 -170 203 -52 18 -73 18 -124 0z m108 -157 c35 -23 66
-65 66 -90 0 -19 -59 -108 -71 -108 -8 0 -130 85 -167 116 -6 5 57 92 70 97
29 12 70 6 102 -15z"/>
<path d="M10706 4638 c-44 -50 -45 -53 -28 -70 9 -9 130 -118 267 -242 l250
-225 47 52 c26 29 46 55 45 59 -2 8 -525 478 -531 478 -2 0 -25 -24 -50 -52z"/>
<path d="M4933 4541 c-73 -25 -121 -61 -220 -165 -100 -105 -134 -169 -135
-250 -1 -71 28 -131 93 -191 54 -50 112 -81 174 -90 40 -6 40 -6 148 102 l107
108 -88 88 -88 87 -39 -40 -39 -40 37 -38 37 -38 -43 -42 c-23 -23 -52 -42
-64 -42 -43 0 -103 71 -103 123 0 36 50 105 141 193 89 86 132 114 174 114 34
0 72 -26 91 -62 16 -32 12 -58 -17 -99 l-18 -26 49 -48 c26 -26 53 -44 59 -41
24 15 62 97 68 145 5 42 1 59 -21 105 -34 70 -103 131 -169 151 -63 19 -70 18
-134 -4z"/>
<path d="M10466 4394 c-81 -75 -146 -140 -144 -146 2 -5 111 -126 242 -268
l239 -260 100 93 c55 50 124 115 154 142 l55 50 -44 42 -44 43 -98 -91 -98
-90 -61 67 c-34 37 -63 70 -64 73 -1 3 34 38 77 76 43 39 79 75 79 80 1 6 -16
27 -36 48 l-38 36 -84 -77 -84 -76 -53 59 c-30 33 -54 63 -54 67 0 3 43 46 95
94 l95 87 -38 43 c-20 23 -40 43 -43 43 -3 1 -72 -60 -153 -135z"/>
<path d="M5227 4045 c-86 -117 -165 -231 -173 -252 -35 -83 -11 -178 61 -241
61 -54 113 -76 181 -77 95 0 119 22 302 268 87 117 161 217 165 223 4 7 -15
28 -48 53 -30 22 -56 41 -59 41 -3 0 -77 -96 -165 -214 -88 -118 -171 -222
-184 -231 -39 -25 -97 -1 -126 53 -18 33 1 66 163 286 81 109 150 204 152 211
4 9 -95 96 -108 95 -2 -1 -74 -97 -161 -215z"/>
<path d="M10221 4179 c-30 -22 -56 -41 -58 -43 -2 -1 40 -110 93 -240 52 -131
94 -240 92 -242 -2 -2 -67 53 -143 122 -77 69 -164 146 -193 171 l-53 46 -64
-44 c-35 -23 -61 -47 -59 -51 11 -17 568 -461 578 -461 17 0 116 73 116 86 1
26 -236 697 -245 697 -5 -1 -35 -19 -64 -41z"/>
<path d="M5824 3856 c-44 -19 -91 -81 -104 -137 -17 -69 5 -135 75 -229 75
-101 82 -137 35 -188 -32 -34 -75 -29 -117 13 -36 36 -37 42 -17 112 5 19 -2
26 -55 52 -33 17 -62 31 -65 31 -2 0 -9 -14 -15 -31 -18 -51 -13 -135 9 -178
26 -52 101 -116 157 -135 136 -46 241 14 273 157 14 63 -9 131 -69 209 -60 79
-71 100 -71 135 1 48 51 90 93 77 56 -17 79 -62 58 -117 -9 -23 -6 -27 51 -57
58 -31 62 -32 74 -15 35 48 30 135 -14 204 -54 89 -204 138 -298 97z"/>
<path d="M9618 3796 c-32 -17 -58 -35 -58 -40 0 -9 327 -604 340 -619 5 -5 86
35 182 88 l175 97 -30 55 c-27 51 -30 53 -51 40 -70 -45 -199 -108 -206 -101
-4 5 -68 117 -141 249 -72 132 -137 245 -143 251 -8 9 -26 4 -68 -20z"/>
<path d="M9393 3690 l-63 -29 51 -113 c28 -62 93 -211 146 -330 l95 -217 37
15 c20 9 48 20 64 26 15 5 27 15 27 21 0 15 -284 657 -290 656 -3 0 -33 -13
-67 -29z"/>
<path d="M6237 3663 c-9 -27 -17 -53 -17 -59 0 -6 34 -24 75 -40 41 -16 75
-33 75 -38 0 -7 -131 -356 -191 -507 l-18 -47 66 -26 c37 -14 68 -24 71 -22 2
3 51 127 108 277 58 151 106 275 108 276 1 1 38 -11 81 -28 43 -16 81 -26 85
-22 15 18 40 97 33 104 -4 4 -102 43 -218 87 -115 44 -217 83 -225 86 -12 5
-20 -6 -33 -41z"/>
<path d="M9037 3563 c-167 -62 -210 -239 -84 -350 44 -38 79 -50 189 -62 48
-6 96 -16 107 -22 25 -17 41 -51 41 -93 0 -42 -33 -66 -89 -66 -42 0 -74 24
-87 62 -6 21 -30 19 -104 -7 -43 -15 -43 -42 -2 -95 42 -52 104 -80 179 -80
190 0 301 143 229 295 -42 89 -94 120 -233 136 -97 11 -140 29 -153 65 -15 37
-12 50 14 80 18 21 32 28 61 28 36 0 58 -16 83 -61 6 -11 20 -9 72 8 36 12 67
23 69 25 10 9 -55 98 -89 120 -52 34 -137 41 -203 17z"/>
<path d="M6829 3460 c-47 -25 -106 -91 -129 -145 -10 -24 -31 -97 -45 -162
-33 -142 -30 -208 10 -282 34 -62 81 -95 165 -117 53 -13 73 -14 116 -5 114
26 176 111 220 303 54 235 12 361 -137 413 -59 21 -156 19 -200 -5z m182 -128
c44 -40 47 -88 14 -237 -40 -179 -70 -225 -146 -225 -48 0 -86 31 -99 80 -8
31 -6 59 10 137 30 146 50 201 85 239 42 45 91 47 136 6z"/>
<path d="M8287 3393 c-26 -2 -50 -10 -53 -16 -2 -7 -35 -175 -72 -375 l-69
-363 51 6 c110 13 104 9 111 79 4 35 10 68 14 74 5 9 134 32 180 32 13 0 26
-20 46 -71 l28 -71 36 6 c20 3 47 6 61 6 59 1 60 0 -101 359 -112 251 -157
341 -168 339 -9 -1 -38 -3 -64 -5z m87 -328 c24 -60 43 -111 42 -112 -2 -2
-31 -7 -65 -11 l-63 -9 6 54 c13 107 29 208 33 198 2 -5 23 -59 47 -120z"/>
<path d="M7526 3154 c-3 -121 -9 -283 -12 -361 l-6 -143 133 0 c154 0 195 10
253 61 70 62 89 118 94 281 5 160 -9 222 -64 287 -58 68 -108 85 -260 89
l-132 4 -6 -218z m274 68 c38 -29 50 -89 44 -222 -9 -195 -29 -230 -132 -230
l-55 0 6 122 c4 66 7 175 7 241 l0 120 52 -6 c29 -4 64 -15 78 -25z"/>
</g>
</svg>
